<?xml version="1.0" encoding="utf-8"?>
<!-- Generator: Adobe Illustrator 16.0.0, SVG Export Plug-In . SVG Version: 6.00 Build 0)  -->
<!DOCTYPE svg PUBLIC "-//W3C//DTD SVG 1.1//EN" "http://www.w3.org/Graphics/SVG/1.1/DTD/svg11.dtd">
<svg version="1.1" id="图层_1" xmlns="http://www.w3.org/2000/svg" xmlns:xlink="http://www.w3.org/1999/xlink" x="0px" y="0px"
	 width="595.281px" height="345.83px" viewBox="0 0 595.281 345.83" enable-background="new 0 0 595.281 345.83"
	 xml:space="preserve">
<path fill="#FFFFFF" d="M582.41,165.499c-4.832-19.833-8.666-25.827-7-45.494c1.668-19.667,6.666-34.49,10-48.656
	c3.334-14.167,9.668-27.495,7.834-35.995s-8.666-12.164-12.666-12.164s-11,6.166-11.5,12.166s-3.002,58.163-6.168,64.83
	s-6.166,24.162-7.666,37.162s-9.5,34.828-14.334,51.661c-4.832,16.833-7.166,22.829-7.5,26.663
	c-0.332,3.834-6.424,3.444-11.582,4.817c-3.688,0.981-7.01,3.849-14.418,3.849c-5.5,0-9.666,4.5-7.666-7.834
	c2-12.333,13.5-39.001,12.666-45.834c-0.832-6.833-17.666-24.667-27-21.667c-9.33,3-61.664,43.166-65.498,42.166
	c-3.832-1-4.666,1.667-4.666-6.833s2.666-117.651,2.666-117.651s6.334-26.829,22.668-26.329c9.426,0.289,15.902,3.294,18.354,4.698
	c7.586,6.221,30.605,25.932,17.646,23.469c-16.668-3.167-20.334-7.334-22.334-8.167s2.834,4.833,9.166,13.833
	c6.334,9,37.664,45.334,45.332,43.5c7.666-1.833,8.666-3.499,7.5-11.666s-8.166-35.667-16.334-44.834
	c-8.166-9.166-28.998-25.996-38.498-28.496s-26.834-1-26.5-4.666c0.334-3.667,2.613-6.667,11.473-12.5
	c8.861-5.834,10.195-8.664,9.027-11.331c-1.166-2.667-9.027-4.539-9.027-4.539s-23.639,2.5-29.139,21.5s-64.955,72.842-75.5,73
	c-1.334,0.021-7.334,0-7.334,0l-3.166-3.646l-1.334-3.5v-10l2-11.833l5.334-8.335l6.832-12.5l-19.832,15.335
	c1,0.5-5.334,9.165-5.334,9.165l-2.5,8l-2.666,7.835l-1.168,27c0,0,8.668,29,25.168,13s34-33,34-33l24.166-21.667l3.334,0.5
	l0.666,2.167l-1.166,110.158c0,0-0.334,5.002-5,1.168c-4.668-3.834-22.666-21.334-28.834-22c-6.166-0.668-17,0.166-17,0.166
	s-14.666,8.163-18.666,14.997s-13.334,19.832-14.668,28.665c-0.981,6.51-1.604,34.917-1.861,49.413
	c-0.092,5.177-0.139,8.578-0.139,8.578s4.107,5.908,9.297,12.885c4.188,5.632,7.229,9.365,11.181,14.117
	c20.821,25.037,52.672,56.285,71.856,41.002c30.334-24.168,3.334-47.168,3.166-82.834l0.334-2.834l4-14l3.5-4.5
	c0,0,36.834-49.84,53-55.174s9.666,9.332,7.334,14.666c-2.334,5.334-16.334,39.334-16.334,39.334s-5.832,41.5,22.998,29.334
	c28.834-12.168,37.668-15.334,37.668-15.334s4.166,0.42-2.584,17.67s-42.248,87.25-42.248,87.25s21.748-18.75,28.248-31
	s17.855-22.5,17.855-22.5l28.895-61.75c0,0,43.834-16.834,44.5-29.167S587.244,185.333,582.41,165.499z M459.023,45.103
	C460.328,45.86,460.394,46.107,459.023,45.103L459.023,45.103z M458.724,44.881c-0.359-0.271-0.793-0.604-1.313-1.025
	C455.906,42.636,456.708,43.231,458.724,44.881z M382.578,285.591c-1,3-3.5,1-7.25,0s-16.75-5.25-22.25-8s-14-6.25-18.75-10.75
	s-8-23.25-8.25-31.5s2.5-28.251,5-36.251s9-12.75,16.25-16.5s13.07-0.27,13.07-0.27l5.578,11.464c0,0,0.699,31.562,1.102,41.057
	c0.5,11.75,17.5,23.75,17.5,23.75S383.578,282.591,382.578,285.591z M567.001,198.387c-1.809,1.502-4.551,2.957-7.424,1.909
	c-6.25-2.277-4-6.634-4-6.634l4.75-14.448l3.75-16.5l0.375-5.75v-6.5c7.75,0.76,8.125,2.782,8.125,2.782s0.75,13.66,2,26.515
	C575.675,191.06,565.285,200.969,567.001,198.387z"/>
<text transform="matrix(1 0 0 1 0 287.4666)" fill="#38A162" font-family="'MS-UIGothic'" font-size="295.9525">草</text>
</svg>
